<svg width="105" height="106" viewBox="0 0 105 106" fill="none" xmlns="http://www.w3.org/2000/svg">
<path d="M3.62069 0.607422H0V4.22811H3.62069V0.607422Z" fill="black"/>
<path d="M7.24138 0.607422H3.62069V4.22811H7.24138V0.607422Z" fill="black"/>
<path d="M10.8621 0.607422H7.24138V4.22811H10.8621V0.607422Z" fill="black"/>
<path d="M14.4828 0.607422H10.8621V4.22811H14.4828V0.607422Z" fill="black"/>
<path d="M18.1034 0.607422H14.4828V4.22811H18.1034V0.607422Z" fill="black"/>
<path d="M21.7241 0.607422H18.1034V4.22811H21.7241V0.607422Z" fill="black"/>
<path d="M25.3448 0.607422H21.7241V4.22811H25.3448V0.607422Z" fill="black"/>
<path d="M32.5862 0.607422H28.9655V4.22811H32.5862V0.607422Z" fill="black"/>
<path d="M39.8276 0.607422H36.2069V4.22811H39.8276V0.607422Z" fill="black"/>
<path d="M57.931 0.607422H54.3103V4.22811H57.931V0.607422Z" fill="black"/>
<path d="M61.5517 0.607422H57.931V4.22811H61.5517V0.607422Z" fill="black"/>
<path d="M68.7931 0.607422H65.1724V4.22811H68.7931V0.607422Z" fill="black"/>
<path d="M76.0345 0.607422H72.4138V4.22811H76.0345V0.607422Z" fill="black"/>
<path d="M83.2759 0.607422H79.6552V4.22811H83.2759V0.607422Z" fill="black"/>
<path d="M86.8966 0.607422H83.2759V4.22811H86.8966V0.607422Z" fill="black"/>
<path d="M90.5172 0.607422H86.8966V4.22811H90.5172V0.607422Z" fill="black"/>
<path d="M94.1379 0.607422H90.5172V4.22811H94.1379V0.607422Z" fill="black"/>
<path d="M97.7586 0.607422H94.1379V4.22811H97.7586V0.607422Z" fill="black"/>
<path d="M101.379 0.607422H97.7586V4.22811H101.379V0.607422Z" fill="black"/>
<path d="M105 0.607422H101.379V4.22811H105V0.607422Z" fill="black"/>
<path d="M3.62069 4.22811H0V7.8488H3.62069V4.22811Z" fill="black"/>
<path d="M25.3448 4.22811H21.7241V7.8488H25.3448V4.22811Z" fill="black"/>
<path d="M36.2069 4.22811H32.5862V7.8488H36.2069V4.22811Z" fill="black"/>
<path d="M39.8276 4.22811H36.2069V7.8488H39.8276V4.22811Z" fill="black"/>
<path d="M43.4483 4.22811H39.8276V7.8488H43.4483V4.22811Z" fill="black"/>
<path d="M47.069 4.22811H43.4483V7.8488H47.069V4.22811Z" fill="black"/>
<path d="M54.3103 4.22811H50.6897V7.8488H54.3103V4.22811Z" fill="black"/>
<path d="M57.931 4.22811H54.3103V7.8488H57.931V4.22811Z" fill="black"/>
<path d="M83.2759 4.22811H79.6552V7.8488H83.2759V4.22811Z" fill="black"/>
<path d="M105 4.22811H101.379V7.8488H105V4.22811Z" fill="black"/>
<path d="M3.62069 7.8488H0V11.4695H3.62069V7.8488Z" fill="black"/>
<path d="M10.8621 7.8488H7.24138V11.4695H10.8621V7.8488Z" fill="black"/>
<path d="M14.4828 7.8488H10.8621V11.4695H14.4828V7.8488Z" fill="black"/>
<path d="M18.1034 7.8488H14.4828V11.4695H18.1034V7.8488Z" fill="black"/>
<path d="M25.3448 7.8488H21.7241V11.4695H25.3448V7.8488Z" fill="black"/>
<path d="M39.8276 7.8488H36.2069V11.4695H39.8276V7.8488Z" fill="black"/>
<path d="M43.4483 7.8488H39.8276V11.4695H43.4483V7.8488Z" fill="black"/>
<path d="M47.069 7.8488H43.4483V11.4695H47.069V7.8488Z" fill="black"/>
<path d="M50.6897 7.8488H47.069V11.4695H50.6897V7.8488Z" fill="black"/>
<path d="M57.931 7.8488H54.3103V11.4695H57.931V7.8488Z" fill="black"/>
<path d="M61.5517 7.8488H57.931V11.4695H61.5517V7.8488Z" fill="black"/>
<path d="M72.4138 7.8488H68.7931V11.4695H72.4138V7.8488Z" fill="black"/>
<path d="M76.0345 7.8488H72.4138V11.4695H76.0345V7.8488Z" fill="black"/>
<path d="M83.2759 7.8488H79.6552V11.4695H83.2759V7.8488Z" fill="black"/>
<path d="M90.5172 7.8488H86.8966V11.4695H90.5172V7.8488Z" fill="black"/>
<path d="M94.1379 7.8488H90.5172V11.4695H94.1379V7.8488Z" fill="black"/>
<path d="M97.7586 7.8488H94.1379V11.4695H97.7586V7.8488Z" fill="black"/>
<path d="M105 7.8488H101.379V11.4695H105V7.8488Z" fill="black"/>
<path d="M3.62069 11.4695H0V15.0902H3.62069V11.4695Z" fill="black"/>
<path d="M10.8621 11.4695H7.24138V15.0902H10.8621V11.4695Z" fill="black"/>
<path d="M14.4828 11.4695H10.8621V15.0902H14.4828V11.4695Z" fill="black"/>
<path d="M18.1034 11.4695H14.4828V15.0902H18.1034V11.4695Z" fill="black"/>
<path d="M25.3448 11.4695H21.7241V15.0902H25.3448V11.4695Z" fill="black"/>
<path d="M32.5862 11.4695H28.9655V15.0902H32.5862V11.4695Z" fill="black"/>
<path d="M36.2069 11.4695H32.5862V15.0902H36.2069V11.4695Z" fill="black"/>
<path d="M39.8276 11.4695H36.2069V15.0902H39.8276V11.4695Z" fill="black"/>
<path d="M43.4483 11.4695H39.8276V15.0902H43.4483V11.4695Z" fill="black"/>
<path d="M50.6897 11.4695H47.069V15.0902H50.6897V11.4695Z" fill="black"/>
<path d="M61.5517 11.4695H57.931V15.0902H61.5517V11.4695Z" fill="black"/>
<path d="M72.4138 11.4695H68.7931V15.0902H72.4138V11.4695Z" fill="black"/>
<path d="M83.2759 11.4695H79.6552V15.0902H83.2759V11.4695Z" fill="black"/>
<path d="M90.5172 11.4695H86.8966V15.0902H90.5172V11.4695Z" fill="black"/>
<path d="M94.1379 11.4695H90.5172V15.0902H94.1379V11.4695Z" fill="black"/>
<path d="M97.7586 11.4695H94.1379V15.0902H97.7586V11.4695Z" fill="black"/>
<path d="M105 11.4695H101.379V15.0902H105V11.4695Z" fill="black"/>
<path d="M3.62069 15.0902H0V18.7109H3.62069V15.0902Z" fill="black"/>
<path d="M10.8621 15.0902H7.24138V18.7109H10.8621V15.0902Z" fill="black"/>
<path d="M14.4828 15.0902H10.8621V18.7109H14.4828V15.0902Z" fill="black"/>
<path d="M18.1034 15.0902H14.4828V18.7109H18.1034V15.0902Z" fill="black"/>
<path d="M25.3448 15.0902H21.7241V18.7109H25.3448V15.0902Z" fill="black"/>
<path d="M50.6897 15.0902H47.069V18.7109H50.6897V15.0902Z" fill="black"/>
<path d="M54.3103 15.0902H50.6897V18.7109H54.3103V15.0902Z" fill="black"/>
<path d="M57.931 15.0902H54.3103V18.7109H57.931V15.0902Z" fill="black"/>
<path d="M65.1724 15.0902H61.5517V18.7109H65.1724V15.0902Z" fill="black"/>
<path d="M83.2759 15.0902H79.6552V18.7109H83.2759V15.0902Z" fill="black"/>
<path d="M90.5172 15.0902H86.8966V18.7109H90.5172V15.0902Z" fill="black"/>
<path d="M94.1379 15.0902H90.5172V18.7109H94.1379V15.0902Z" fill="black"/>
<path d="M97.7586 15.0902H94.1379V18.7109H97.7586V15.0902Z" fill="black"/>
<path d="M105 15.0902H101.379V18.7109H105V15.0902Z" fill="black"/>
<path d="M3.62069 18.7109H0V22.3316H3.62069V18.7109Z" fill="black"/>
<path d="M25.3448 18.7109H21.7241V22.3316H25.3448V18.7109Z" fill="black"/>
<path d="M32.5862 18.7109H28.9655V22.3316H32.5862V18.7109Z" fill="black"/>
<path d="M36.2069 18.7109H32.5862V22.3316H36.2069V18.7109Z" fill="black"/>
<path d="M39.8276 18.7109H36.2069V22.3316H39.8276V18.7109Z" fill="black"/>
<path d="M43.4483 18.7109H39.8276V22.3316H43.4483V18.7109Z" fill="black"/>
<path d="M47.069 18.7109H43.4483V22.3316H47.069V18.7109Z" fill="black"/>
<path d="M50.6897 18.7109H47.069V22.3316H50.6897V18.7109Z" fill="black"/>
<path d="M57.931 18.7109H54.3103V22.3316H57.931V18.7109Z" fill="black"/>
<path d="M61.5517 18.7109H57.931V22.3316H61.5517V18.7109Z" fill="black"/>
<path d="M83.2759 18.7109H79.6552V22.3316H83.2759V18.7109Z" fill="black"/>
<path d="M105 18.7109H101.379V22.3316H105V18.7109Z" fill="black"/>
<path d="M3.62069 22.3316H0V25.9522H3.62069V22.3316Z" fill="black"/>
<path d="M7.24138 22.3316H3.62069V25.9522H7.24138V22.3316Z" fill="black"/>
<path d="M10.8621 22.3316H7.24138V25.9522H10.8621V22.3316Z" fill="black"/>
<path d="M14.4828 22.3316H10.8621V25.9522H14.4828V22.3316Z" fill="black"/>
<path d="M18.1034 22.3316H14.4828V25.9522H18.1034V22.3316Z" fill="black"/>
<path d="M21.7241 22.3316H18.1034V25.9522H21.7241V22.3316Z" fill="black"/>
<path d="M25.3448 22.3316H21.7241V25.9522H25.3448V22.3316Z" fill="black"/>
<path d="M32.5862 22.3316H28.9655V25.9522H32.5862V22.3316Z" fill="black"/>
<path d="M39.8276 22.3316H36.2069V25.9522H39.8276V22.3316Z" fill="black"/>
<path d="M47.069 22.3316H43.4483V25.9522H47.069V22.3316Z" fill="black"/>
<path d="M54.3103 22.3316H50.6897V25.9522H54.3103V22.3316Z" fill="black"/>
<path d="M61.5517 22.3316H57.931V25.9522H61.5517V22.3316Z" fill="black"/>
<path d="M68.7931 22.3316H65.1724V25.9522H68.7931V22.3316Z" fill="black"/>
<path d="M76.0345 22.3316H72.4138V25.9522H76.0345V22.3316Z" fill="black"/>
<path d="M83.2759 22.3316H79.6552V25.9522H83.2759V22.3316Z" fill="black"/>
<path d="M86.8966 22.3316H83.2759V25.9522H86.8966V22.3316Z" fill="black"/>
<path d="M90.5172 22.3316H86.8966V25.9522H90.5172V22.3316Z" fill="black"/>
<path d="M94.1379 22.3316H90.5172V25.9522H94.1379V22.3316Z" fill="black"/>
<path d="M97.7586 22.3316H94.1379V25.9522H97.7586V22.3316Z" fill="black"/>
<path d="M101.379 22.3316H97.7586V25.9522H101.379V22.3316Z" fill="black"/>
<path d="M105 22.3316H101.379V25.9522H105V22.3316Z" fill="black"/>
<path d="M36.2069 25.9522H32.5862V29.5729H36.2069V25.9522Z" fill="black"/>
<path d="M54.3103 25.9522H50.6897V29.5729H54.3103V25.9522Z" fill="black"/>
<path d="M65.1724 25.9522H61.5517V29.5729H65.1724V25.9522Z" fill="black"/>
<path d="M68.7931 25.9522H65.1724V29.5729H68.7931V25.9522Z" fill="black"/>
<path d="M72.4138 25.9522H68.7931V29.5729H72.4138V25.9522Z" fill="black"/>
<path d="M76.0345 25.9522H72.4138V29.5729H76.0345V25.9522Z" fill="black"/>
<path d="M21.7241 29.5729H18.1034V33.1936H21.7241V29.5729Z" fill="black"/>
<path d="M25.3448 29.5729H21.7241V33.1936H25.3448V29.5729Z" fill="black"/>
<path d="M32.5862 29.5729H28.9655V33.1936H32.5862V29.5729Z" fill="black"/>
<path d="M36.2069 29.5729H32.5862V33.1936H36.2069V29.5729Z" fill="black"/>
<path d="M43.4483 29.5729H39.8276V33.1936H43.4483V29.5729Z" fill="black"/>
<path d="M47.069 29.5729H43.4483V33.1936H47.069V29.5729Z" fill="black"/>
<path d="M54.3103 29.5729H50.6897V33.1936H54.3103V29.5729Z" fill="black"/>
<path d="M57.931 29.5729H54.3103V33.1936H57.931V29.5729Z" fill="black"/>
<path d="M61.5517 29.5729H57.931V33.1936H61.5517V29.5729Z" fill="black"/>
<path d="M65.1724 29.5729H61.5517V33.1936H65.1724V29.5729Z" fill="black"/>
<path d="M79.6552 29.5729H76.0345V33.1936H79.6552V29.5729Z" fill="black"/>
<path d="M86.8966 29.5729H83.2759V33.1936H86.8966V29.5729Z" fill="black"/>
<path d="M94.1379 29.5729H90.5172V33.1936H94.1379V29.5729Z" fill="black"/>
<path d="M105 29.5729H101.379V33.1936H105V29.5729Z" fill="black"/>
<path d="M3.62069 33.1936H0V36.8143H3.62069V33.1936Z" fill="black"/>
<path d="M14.4828 33.1936H10.8621V36.8143H14.4828V33.1936Z" fill="black"/>
<path d="M28.9655 33.1936H25.3448V36.8143H28.9655V33.1936Z" fill="black"/>
<path d="M32.5862 33.1936H28.9655V36.8143H32.5862V33.1936Z" fill="black"/>
<path d="M36.2069 33.1936H32.5862V36.8143H36.2069V33.1936Z" fill="black"/>
<path d="M57.931 33.1936H54.3103V36.8143H57.931V33.1936Z" fill="black"/>
<path d="M65.1724 33.1936H61.5517V36.8143H65.1724V33.1936Z" fill="black"/>
<path d="M72.4138 33.1936H68.7931V36.8143H72.4138V33.1936Z" fill="black"/>
<path d="M79.6552 33.1936H76.0345V36.8143H79.6552V33.1936Z" fill="black"/>
<path d="M3.62069 36.8143H0V40.435H3.62069V36.8143Z" fill="black"/>
<path d="M14.4828 36.8143H10.8621V40.435H14.4828V36.8143Z" fill="black"/>
<path d="M18.1034 36.8143H14.4828V40.435H18.1034V36.8143Z" fill="black"/>
<path d="M25.3448 36.8143H21.7241V40.435H25.3448V36.8143Z" fill="black"/>
<path d="M28.9655 36.8143H25.3448V40.435H28.9655V36.8143Z" fill="black"/>
<path d="M32.5862 36.8143H28.9655V40.435H32.5862V36.8143Z" fill="black"/>
<path d="M39.8276 36.8143H36.2069V40.435H39.8276V36.8143Z" fill="black"/>
<path d="M47.069 36.8143H43.4483V40.435H47.069V36.8143Z" fill="black"/>
<path d="M57.931 36.8143H54.3103V40.435H57.931V36.8143Z" fill="black"/>
<path d="M68.7931 36.8143H65.1724V40.435H68.7931V36.8143Z" fill="black"/>
<path d="M76.0345 36.8143H72.4138V40.435H76.0345V36.8143Z" fill="black"/>
<path d="M83.2759 36.8143H79.6552V40.435H83.2759V36.8143Z" fill="black"/>
<path d="M90.5172 36.8143H86.8966V40.435H90.5172V36.8143Z" fill="black"/>
<path d="M97.7586 36.8143H94.1379V40.435H97.7586V36.8143Z" fill="black"/>
<path d="M105 36.8143H101.379V40.435H105V36.8143Z" fill="black"/>
<path d="M21.7241 40.435H18.1034V44.0557H21.7241V40.435Z" fill="black"/>
<path d="M39.8276 40.435H36.2069V44.0557H39.8276V40.435Z" fill="black"/>
<path d="M50.6897 40.435H47.069V44.0557H50.6897V40.435Z" fill="black"/>
<path d="M54.3103 40.435H50.6897V44.0557H54.3103V40.435Z" fill="black"/>
<path d="M61.5517 40.435H57.931V44.0557H61.5517V40.435Z" fill="black"/>
<path d="M68.7931 40.435H65.1724V44.0557H68.7931V40.435Z" fill="black"/>
<path d="M72.4138 40.435H68.7931V44.0557H72.4138V40.435Z" fill="black"/>
<path d="M76.0345 40.435H72.4138V44.0557H76.0345V40.435Z" fill="black"/>
<path d="M79.6552 40.435H76.0345V44.0557H79.6552V40.435Z" fill="black"/>
<path d="M86.8966 40.435H83.2759V44.0557H86.8966V40.435Z" fill="black"/>
<path d="M90.5172 40.435H86.8966V44.0557H90.5172V40.435Z" fill="black"/>
<path d="M10.8621 44.0557H7.24138V47.6764H10.8621V44.0557Z" fill="black"/>
<path d="M25.3448 44.0557H21.7241V47.6764H25.3448V44.0557Z" fill="black"/>
<path d="M32.5862 44.0557H28.9655V47.6764H32.5862V44.0557Z" fill="black"/>
<path d="M36.2069 44.0557H32.5862V47.6764H36.2069V44.0557Z" fill="black"/>
<path d="M39.8276 44.0557H36.2069V47.6764H39.8276V44.0557Z" fill="black"/>
<path d="M43.4483 44.0557H39.8276V47.6764H43.4483V44.0557Z" fill="black"/>
<path d="M47.069 44.0557H43.4483V47.6764H47.069V44.0557Z" fill="black"/>
<path d="M54.3103 44.0557H50.6897V47.6764H54.3103V44.0557Z" fill="black"/>
<path d="M57.931 44.0557H54.3103V47.6764H57.931V44.0557Z" fill="black"/>
<path d="M68.7931 44.0557H65.1724V47.6764H68.7931V44.0557Z" fill="black"/>
<path d="M72.4138 44.0557H68.7931V47.6764H72.4138V44.0557Z" fill="black"/>
<path d="M83.2759 44.0557H79.6552V47.6764H83.2759V44.0557Z" fill="black"/>
<path d="M90.5172 44.0557H86.8966V47.6764H90.5172V44.0557Z" fill="black"/>
<path d="M97.7586 44.0557H94.1379V47.6764H97.7586V44.0557Z" fill="black"/>
<path d="M105 44.0557H101.379V47.6764H105V44.0557Z" fill="black"/>
<path d="M3.62069 47.6764H0V51.2971H3.62069V47.6764Z" fill="black"/>
<path d="M7.24138 47.6764H3.62069V51.2971H7.24138V47.6764Z" fill="black"/>
<path d="M10.8621 47.6764H7.24138V51.2971H10.8621V47.6764Z" fill="black"/>
<path d="M14.4828 47.6764H10.8621V51.2971H14.4828V47.6764Z" fill="black"/>
<path d="M18.1034 47.6764H14.4828V51.2971H18.1034V47.6764Z" fill="black"/>
<path d="M21.7241 47.6764H18.1034V51.2971H21.7241V47.6764Z" fill="black"/>
<path d="M57.931 47.6764H54.3103V51.2971H57.931V47.6764Z" fill="black"/>
<path d="M61.5517 47.6764H57.931V51.2971H61.5517V47.6764Z" fill="black"/>
<path d="M68.7931 47.6764H65.1724V51.2971H68.7931V47.6764Z" fill="black"/>
<path d="M72.4138 47.6764H68.7931V51.2971H72.4138V47.6764Z" fill="black"/>
<path d="M79.6552 47.6764H76.0345V51.2971H79.6552V47.6764Z" fill="black"/>
<path d="M83.2759 47.6764H79.6552V51.2971H83.2759V47.6764Z" fill="black"/>
<path d="M86.8966 47.6764H83.2759V51.2971H86.8966V47.6764Z" fill="black"/>
<path d="M101.379 47.6764H97.7586V51.2971H101.379V47.6764Z" fill="black"/>
<path d="M105 47.6764H101.379V51.2971H105V47.6764Z" fill="black"/>
<path d="M7.24138 51.2971H3.62069V54.9178H7.24138V51.2971Z" fill="black"/>
<path d="M14.4828 51.2971H10.8621V54.9178H14.4828V51.2971Z" fill="black"/>
<path d="M18.1034 51.2971H14.4828V54.9178H18.1034V51.2971Z" fill="black"/>
<path d="M21.7241 51.2971H18.1034V54.9178H21.7241V51.2971Z" fill="black"/>
<path d="M25.3448 51.2971H21.7241V54.9178H25.3448V51.2971Z" fill="black"/>
<path d="M28.9655 51.2971H25.3448V54.9178H28.9655V51.2971Z" fill="black"/>
<path d="M36.2069 51.2971H32.5862V54.9178H36.2069V51.2971Z" fill="black"/>
<path d="M43.4483 51.2971H39.8276V54.9178H43.4483V51.2971Z" fill="black"/>
<path d="M57.931 51.2971H54.3103V54.9178H57.931V51.2971Z" fill="black"/>
<path d="M61.5517 51.2971H57.931V54.9178H61.5517V51.2971Z" fill="black"/>
<path d="M76.0345 51.2971H72.4138V54.9178H76.0345V51.2971Z" fill="black"/>
<path d="M83.2759 51.2971H79.6552V54.9178H83.2759V51.2971Z" fill="black"/>
<path d="M90.5172 51.2971H86.8966V54.9178H90.5172V51.2971Z" fill="black"/>
<path d="M94.1379 51.2971H90.5172V54.9178H94.1379V51.2971Z" fill="black"/>
<path d="M105 51.2971H101.379V54.9178H105V51.2971Z" fill="black"/>
<path d="M7.24138 54.9178H3.62069V58.5385H7.24138V54.9178Z" fill="black"/>
<path d="M14.4828 54.9178H10.8621V58.5385H14.4828V54.9178Z" fill="black"/>
<path d="M32.5862 54.9178H28.9655V58.5385H32.5862V54.9178Z" fill="black"/>
<path d="M36.2069 54.9178H32.5862V58.5385H36.2069V54.9178Z" fill="black"/>
<path d="M43.4483 54.9178H39.8276V58.5385H43.4483V54.9178Z" fill="black"/>
<path d="M50.6897 54.9178H47.069V58.5385H50.6897V54.9178Z" fill="black"/>
<path d="M54.3103 54.9178H50.6897V58.5385H54.3103V54.9178Z" fill="black"/>
<path d="M61.5517 54.9178H57.931V58.5385H61.5517V54.9178Z" fill="black"/>
<path d="M65.1724 54.9178H61.5517V58.5385H65.1724V54.9178Z" fill="black"/>
<path d="M72.4138 54.9178H68.7931V58.5385H72.4138V54.9178Z" fill="black"/>
<path d="M79.6552 54.9178H76.0345V58.5385H79.6552V54.9178Z" fill="black"/>
<path d="M83.2759 54.9178H79.6552V58.5385H83.2759V54.9178Z" fill="black"/>
<path d="M90.5172 54.9178H86.8966V58.5385H90.5172V54.9178Z" fill="black"/>
<path d="M94.1379 54.9178H90.5172V58.5385H94.1379V54.9178Z" fill="black"/>
<path d="M101.379 54.9178H97.7586V58.5385H101.379V54.9178Z" fill="black"/>
<path d="M3.62069 58.5385H0V62.1591H3.62069V58.5385Z" fill="black"/>
<path d="M10.8621 58.5385H7.24138V62.1591H10.8621V58.5385Z" fill="black"/>
<path d="M18.1034 58.5385H14.4828V62.1591H18.1034V58.5385Z" fill="black"/>
<path d="M25.3448 58.5385H21.7241V62.1591H25.3448V58.5385Z" fill="black"/>
<path d="M39.8276 58.5385H36.2069V62.1591H39.8276V58.5385Z" fill="black"/>
<path d="M47.069 58.5385H43.4483V62.1591H47.069V58.5385Z" fill="black"/>
<path d="M54.3103 58.5385H50.6897V62.1591H54.3103V58.5385Z" fill="black"/>
<path d="M57.931 58.5385H54.3103V62.1591H57.931V58.5385Z" fill="black"/>
<path d="M61.5517 58.5385H57.931V62.1591H61.5517V58.5385Z" fill="black"/>
<path d="M72.4138 58.5385H68.7931V62.1591H72.4138V58.5385Z" fill="black"/>
<path d="M76.0345 58.5385H72.4138V62.1591H76.0345V58.5385Z" fill="black"/>
<path d="M79.6552 58.5385H76.0345V62.1591H79.6552V58.5385Z" fill="black"/>
<path d="M86.8966 58.5385H83.2759V62.1591H86.8966V58.5385Z" fill="black"/>
<path d="M94.1379 58.5385H90.5172V62.1591H94.1379V58.5385Z" fill="black"/>
<path d="M7.24138 62.1591H3.62069V65.7798H7.24138V62.1591Z" fill="black"/>
<path d="M10.8621 62.1591H7.24138V65.7798H10.8621V62.1591Z" fill="black"/>
<path d="M28.9655 62.1591H25.3448V65.7798H28.9655V62.1591Z" fill="black"/>
<path d="M39.8276 62.1591H36.2069V65.7798H39.8276V62.1591Z" fill="black"/>
<path d="M47.069 62.1591H43.4483V65.7798H47.069V62.1591Z" fill="black"/>
<path d="M50.6897 62.1591H47.069V65.7798H50.6897V62.1591Z" fill="black"/>
<path d="M57.931 62.1591H54.3103V65.7798H57.931V62.1591Z" fill="black"/>
<path d="M61.5517 62.1591H57.931V65.7798H61.5517V62.1591Z" fill="black"/>
<path d="M68.7931 62.1591H65.1724V65.7798H68.7931V62.1591Z" fill="black"/>
<path d="M72.4138 62.1591H68.7931V65.7798H72.4138V62.1591Z" fill="black"/>
<path d="M83.2759 62.1591H79.6552V65.7798H83.2759V62.1591Z" fill="black"/>
<path d="M3.62069 65.7798H0V69.4005H3.62069V65.7798Z" fill="black"/>
<path d="M7.24138 65.7798H3.62069V69.4005H7.24138V65.7798Z" fill="black"/>
<path d="M10.8621 65.7798H7.24138V69.4005H10.8621V65.7798Z" fill="black"/>
<path d="M14.4828 65.7798H10.8621V69.4005H14.4828V65.7798Z" fill="black"/>
<path d="M18.1034 65.7798H14.4828V69.4005H18.1034V65.7798Z" fill="black"/>
<path d="M25.3448 65.7798H21.7241V69.4005H25.3448V65.7798Z" fill="black"/>
<path d="M28.9655 65.7798H25.3448V69.4005H28.9655V65.7798Z" fill="black"/>
<path d="M32.5862 65.7798H28.9655V69.4005H32.5862V65.7798Z" fill="black"/>
<path d="M50.6897 65.7798H47.069V69.4005H50.6897V65.7798Z" fill="black"/>
<path d="M57.931 65.7798H54.3103V69.4005H57.931V65.7798Z" fill="black"/>
<path d="M65.1724 65.7798H61.5517V69.4005H65.1724V65.7798Z" fill="black"/>
<path d="M68.7931 65.7798H65.1724V69.4005H68.7931V65.7798Z" fill="black"/>
<path d="M72.4138 65.7798H68.7931V69.4005H72.4138V65.7798Z" fill="black"/>
<path d="M76.0345 65.7798H72.4138V69.4005H76.0345V65.7798Z" fill="black"/>
<path d="M86.8966 65.7798H83.2759V69.4005H86.8966V65.7798Z" fill="black"/>
<path d="M90.5172 65.7798H86.8966V69.4005H90.5172V65.7798Z" fill="black"/>
<path d="M3.62069 69.4005H0V73.0212H3.62069V69.4005Z" fill="black"/>
<path d="M21.7241 69.4005H18.1034V73.0212H21.7241V69.4005Z" fill="black"/>
<path d="M32.5862 69.4005H28.9655V73.0212H32.5862V69.4005Z" fill="black"/>
<path d="M39.8276 69.4005H36.2069V73.0212H39.8276V69.4005Z" fill="black"/>
<path d="M43.4483 69.4005H39.8276V73.0212H43.4483V69.4005Z" fill="black"/>
<path d="M50.6897 69.4005H47.069V73.0212H50.6897V69.4005Z" fill="black"/>
<path d="M72.4138 69.4005H68.7931V73.0212H72.4138V69.4005Z" fill="black"/>
<path d="M94.1379 69.4005H90.5172V73.0212H94.1379V69.4005Z" fill="black"/>
<path d="M97.7586 69.4005H94.1379V73.0212H97.7586V69.4005Z" fill="black"/>
<path d="M101.379 69.4005H97.7586V73.0212H101.379V69.4005Z" fill="black"/>
<path d="M10.8621 73.0212H7.24138V76.6419H10.8621V73.0212Z" fill="black"/>
<path d="M25.3448 73.0212H21.7241V76.6419H25.3448V73.0212Z" fill="black"/>
<path d="M36.2069 73.0212H32.5862V76.6419H36.2069V73.0212Z" fill="black"/>
<path d="M39.8276 73.0212H36.2069V76.6419H39.8276V73.0212Z" fill="black"/>
<path d="M50.6897 73.0212H47.069V76.6419H50.6897V73.0212Z" fill="black"/>
<path d="M57.931 73.0212H54.3103V76.6419H57.931V73.0212Z" fill="black"/>
<path d="M61.5517 73.0212H57.931V76.6419H61.5517V73.0212Z" fill="black"/>
<path d="M65.1724 73.0212H61.5517V76.6419H65.1724V73.0212Z" fill="black"/>
<path d="M76.0345 73.0212H72.4138V76.6419H76.0345V73.0212Z" fill="black"/>
<path d="M79.6552 73.0212H76.0345V76.6419H79.6552V73.0212Z" fill="black"/>
<path d="M83.2759 73.0212H79.6552V76.6419H83.2759V73.0212Z" fill="black"/>
<path d="M86.8966 73.0212H83.2759V76.6419H86.8966V73.0212Z" fill="black"/>
<path d="M90.5172 73.0212H86.8966V76.6419H90.5172V73.0212Z" fill="black"/>
<path d="M101.379 73.0212H97.7586V76.6419H101.379V73.0212Z" fill="black"/>
<path d="M105 73.0212H101.379V76.6419H105V73.0212Z" fill="black"/>
<path d="M32.5862 76.6419H28.9655V80.2626H32.5862V76.6419Z" fill="black"/>
<path d="M47.069 76.6419H43.4483V80.2626H47.069V76.6419Z" fill="black"/>
<path d="M54.3103 76.6419H50.6897V80.2626H54.3103V76.6419Z" fill="black"/>
<path d="M57.931 76.6419H54.3103V80.2626H57.931V76.6419Z" fill="black"/>
<path d="M61.5517 76.6419H57.931V80.2626H61.5517V76.6419Z" fill="black"/>
<path d="M65.1724 76.6419H61.5517V80.2626H65.1724V76.6419Z" fill="black"/>
<path d="M68.7931 76.6419H65.1724V80.2626H68.7931V76.6419Z" fill="black"/>
<path d="M76.0345 76.6419H72.4138V80.2626H76.0345V76.6419Z" fill="black"/>
<path d="M90.5172 76.6419H86.8966V80.2626H90.5172V76.6419Z" fill="black"/>
<path d="M97.7586 76.6419H94.1379V80.2626H97.7586V76.6419Z" fill="black"/>
<path d="M101.379 76.6419H97.7586V80.2626H101.379V76.6419Z" fill="black"/>
<path d="M3.62069 80.2626H0V83.8833H3.62069V80.2626Z" fill="black"/>
<path d="M7.24138 80.2626H3.62069V83.8833H7.24138V80.2626Z" fill="black"/>
<path d="M10.8621 80.2626H7.24138V83.8833H10.8621V80.2626Z" fill="black"/>
<path d="M14.4828 80.2626H10.8621V83.8833H14.4828V80.2626Z" fill="black"/>
<path d="M18.1034 80.2626H14.4828V83.8833H18.1034V80.2626Z" fill="black"/>
<path d="M21.7241 80.2626H18.1034V83.8833H21.7241V80.2626Z" fill="black"/>
<path d="M25.3448 80.2626H21.7241V83.8833H25.3448V80.2626Z" fill="black"/>
<path d="M36.2069 80.2626H32.5862V83.8833H36.2069V80.2626Z" fill="black"/>
<path d="M43.4483 80.2626H39.8276V83.8833H43.4483V80.2626Z" fill="black"/>
<path d="M47.069 80.2626H43.4483V83.8833H47.069V80.2626Z" fill="black"/>
<path d="M54.3103 80.2626H50.6897V83.8833H54.3103V80.2626Z" fill="black"/>
<path d="M65.1724 80.2626H61.5517V83.8833H65.1724V80.2626Z" fill="black"/>
<path d="M76.0345 80.2626H72.4138V83.8833H76.0345V80.2626Z" fill="black"/>
<path d="M83.2759 80.2626H79.6552V83.8833H83.2759V80.2626Z" fill="black"/>
<path d="M90.5172 80.2626H86.8966V83.8833H90.5172V80.2626Z" fill="black"/>
<path d="M94.1379 80.2626H90.5172V83.8833H94.1379V80.2626Z" fill="black"/>
<path d="M105 80.2626H101.379V83.8833H105V80.2626Z" fill="black"/>
<path d="M3.62069 83.8833H0V87.504H3.62069V83.8833Z" fill="black"/>
<path d="M25.3448 83.8833H21.7241V87.504H25.3448V83.8833Z" fill="black"/>
<path d="M32.5862 83.8833H28.9655V87.504H32.5862V83.8833Z" fill="black"/>
<path d="M39.8276 83.8833H36.2069V87.504H39.8276V83.8833Z" fill="black"/>
<path d="M43.4483 83.8833H39.8276V87.504H43.4483V83.8833Z" fill="black"/>
<path d="M50.6897 83.8833H47.069V87.504H50.6897V83.8833Z" fill="black"/>
<path d="M65.1724 83.8833H61.5517V87.504H65.1724V83.8833Z" fill="black"/>
<path d="M68.7931 83.8833H65.1724V87.504H68.7931V83.8833Z" fill="black"/>
<path d="M72.4138 83.8833H68.7931V87.504H72.4138V83.8833Z" fill="black"/>
<path d="M76.0345 83.8833H72.4138V87.504H76.0345V83.8833Z" fill="black"/>
<path d="M90.5172 83.8833H86.8966V87.504H90.5172V83.8833Z" fill="black"/>
<path d="M94.1379 83.8833H90.5172V87.504H94.1379V83.8833Z" fill="black"/>
<path d="M101.379 83.8833H97.7586V87.504H101.379V83.8833Z" fill="black"/>
<path d="M3.62069 87.504H0V91.1247H3.62069V87.504Z" fill="black"/>
<path d="M10.8621 87.504H7.24138V91.1247H10.8621V87.504Z" fill="black"/>
<path d="M14.4828 87.504H10.8621V91.1247H14.4828V87.504Z" fill="black"/>
<path d="M18.1034 87.504H14.4828V91.1247H18.1034V87.504Z" fill="black"/>
<path d="M25.3448 87.504H21.7241V91.1247H25.3448V87.504Z" fill="black"/>
<path d="M39.8276 87.504H36.2069V91.1247H39.8276V87.504Z" fill="black"/>
<path d="M43.4483 87.504H39.8276V91.1247H43.4483V87.504Z" fill="black"/>
<path d="M54.3103 87.504H50.6897V91.1247H54.3103V87.504Z" fill="black"/>
<path d="M57.931 87.504H54.3103V91.1247H57.931V87.504Z" fill="black"/>
<path d="M68.7931 87.504H65.1724V91.1247H68.7931V87.504Z" fill="black"/>
<path d="M72.4138 87.504H68.7931V91.1247H72.4138V87.504Z" fill="black"/>
<path d="M76.0345 87.504H72.4138V91.1247H76.0345V87.504Z" fill="black"/>
<path d="M79.6552 87.504H76.0345V91.1247H79.6552V87.504Z" fill="black"/>
<path d="M83.2759 87.504H79.6552V91.1247H83.2759V87.504Z" fill="black"/>
<path d="M86.8966 87.504H83.2759V91.1247H86.8966V87.504Z" fill="black"/>
<path d="M90.5172 87.504H86.8966V91.1247H90.5172V87.504Z" fill="black"/>
<path d="M94.1379 87.504H90.5172V91.1247H94.1379V87.504Z" fill="black"/>
<path d="M97.7586 87.504H94.1379V91.1247H97.7586V87.504Z" fill="black"/>
<path d="M101.379 87.504H97.7586V91.1247H101.379V87.504Z" fill="black"/>
<path d="M105 87.504H101.379V91.1247H105V87.504Z" fill="black"/>
<path d="M3.62069 91.1247H0V94.7454H3.62069V91.1247Z" fill="black"/>
<path d="M10.8621 91.1247H7.24138V94.7454H10.8621V91.1247Z" fill="black"/>
<path d="M14.4828 91.1247H10.8621V94.7454H14.4828V91.1247Z" fill="black"/>
<path d="M18.1034 91.1247H14.4828V94.7454H18.1034V91.1247Z" fill="black"/>
<path d="M25.3448 91.1247H21.7241V94.7454H25.3448V91.1247Z" fill="black"/>
<path d="M36.2069 91.1247H32.5862V94.7454H36.2069V91.1247Z" fill="black"/>
<path d="M39.8276 91.1247H36.2069V94.7454H39.8276V91.1247Z" fill="black"/>
<path d="M43.4483 91.1247H39.8276V94.7454H43.4483V91.1247Z" fill="black"/>
<path d="M47.069 91.1247H43.4483V94.7454H47.069V91.1247Z" fill="black"/>
<path d="M57.931 91.1247H54.3103V94.7454H57.931V91.1247Z" fill="black"/>
<path d="M61.5517 91.1247H57.931V94.7454H61.5517V91.1247Z" fill="black"/>
<path d="M68.7931 91.1247H65.1724V94.7454H68.7931V91.1247Z" fill="black"/>
<path d="M90.5172 91.1247H86.8966V94.7454H90.5172V91.1247Z" fill="black"/>
<path d="M94.1379 91.1247H90.5172V94.7454H94.1379V91.1247Z" fill="black"/>
<path d="M3.62069 94.7454H0V98.366H3.62069V94.7454Z" fill="black"/>
<path d="M10.8621 94.7454H7.24138V98.366H10.8621V94.7454Z" fill="black"/>
<path d="M14.4828 94.7454H10.8621V98.366H14.4828V94.7454Z" fill="black"/>
<path d="M18.1034 94.7454H14.4828V98.366H18.1034V94.7454Z" fill="black"/>
<path d="M25.3448 94.7454H21.7241V98.366H25.3448V94.7454Z" fill="black"/>
<path d="M39.8276 94.7454H36.2069V98.366H39.8276V94.7454Z" fill="black"/>
<path d="M43.4483 94.7454H39.8276V98.366H43.4483V94.7454Z" fill="black"/>
<path d="M50.6897 94.7454H47.069V98.366H50.6897V94.7454Z" fill="black"/>
<path d="M54.3103 94.7454H50.6897V98.366H54.3103V94.7454Z" fill="black"/>
<path d="M76.0345 94.7454H72.4138V98.366H76.0345V94.7454Z" fill="black"/>
<path d="M79.6552 94.7454H76.0345V98.366H79.6552V94.7454Z" fill="black"/>
<path d="M86.8966 94.7454H83.2759V98.366H86.8966V94.7454Z" fill="black"/>
<path d="M3.62069 98.366H0V101.987H3.62069V98.366Z" fill="black"/>
<path d="M25.3448 98.366H21.7241V101.987H25.3448V98.366Z" fill="black"/>
<path d="M39.8276 98.366H36.2069V101.987H39.8276V98.366Z" fill="black"/>
<path d="M43.4483 98.366H39.8276V101.987H43.4483V98.366Z" fill="black"/>
<path d="M47.069 98.366H43.4483V101.987H47.069V98.366Z" fill="black"/>
<path d="M54.3103 98.366H50.6897V101.987H54.3103V98.366Z" fill="black"/>
<path d="M57.931 98.366H54.3103V101.987H57.931V98.366Z" fill="black"/>
<path d="M61.5517 98.366H57.931V101.987H61.5517V98.366Z" fill="black"/>
<path d="M68.7931 98.366H65.1724V101.987H68.7931V98.366Z" fill="black"/>
<path d="M72.4138 98.366H68.7931V101.987H72.4138V98.366Z" fill="black"/>
<path d="M79.6552 98.366H76.0345V101.987H79.6552V98.366Z" fill="black"/>
<path d="M83.2759 98.366H79.6552V101.987H83.2759V98.366Z" fill="black"/>
<path d="M86.8966 98.366H83.2759V101.987H86.8966V98.366Z" fill="black"/>
<path d="M90.5172 98.366H86.8966V101.987H90.5172V98.366Z" fill="black"/>
<path d="M101.379 98.366H97.7586V101.987H101.379V98.366Z" fill="black"/>
<path d="M105 98.366H101.379V101.987H105V98.366Z" fill="black"/>
<path d="M3.62069 101.987H0V105.607H3.62069V101.987Z" fill="black"/>
<path d="M7.24138 101.987H3.62069V105.607H7.24138V101.987Z" fill="black"/>
<path d="M10.8621 101.987H7.24138V105.607H10.8621V101.987Z" fill="black"/>
<path d="M14.4828 101.987H10.8621V105.607H14.4828V101.987Z" fill="black"/>
<path d="M18.1034 101.987H14.4828V105.607H18.1034V101.987Z" fill="black"/>
<path d="M21.7241 101.987H18.1034V105.607H21.7241V101.987Z" fill="black"/>
<path d="M25.3448 101.987H21.7241V105.607H25.3448V101.987Z" fill="black"/>
<path d="M36.2069 101.987H32.5862V105.607H36.2069V101.987Z" fill="black"/>
<path d="M47.069 101.987H43.4483V105.607H47.069V101.987Z" fill="black"/>
<path d="M54.3103 101.987H50.6897V105.607H54.3103V101.987Z" fill="black"/>
<path d="M65.1724 101.987H61.5517V105.607H65.1724V101.987Z" fill="black"/>
<path d="M68.7931 101.987H65.1724V105.607H68.7931V101.987Z" fill="black"/>
<path d="M72.4138 101.987H68.7931V105.607H72.4138V101.987Z" fill="black"/>
<path d="M79.6552 101.987H76.0345V105.607H79.6552V101.987Z" fill="black"/>
<path d="M94.1379 101.987H90.5172V105.607H94.1379V101.987Z" fill="black"/>
<path d="M97.7586 101.987H94.1379V105.607H97.7586V101.987Z" fill="black"/>
</svg>
