<svg width="192" height="44" viewBox="0 0 192 44" fill="none" xmlns="http://www.w3.org/2000/svg">
<g clip-path="url(#clip0_11019_69156)">
<path d="M86.0543 4V11.1673H75.6706V4H71.6867L65.3353 18.2708L58.9839 4H55V22H58.1021V9.11349L63.9129 21.7708H65.2439H65.4266H66.7577L72.5685 9.11349V22H75.6706V14.0724H86.0543V22H89.0315V4H86.0543Z" fill="#16356E"/>
<path d="M102.07 3.99987H98.6341H96.8463V21.9999H99.8235V17.6177H102.07C105.709 17.6177 108.66 14.738 108.66 11.1871V10.4286C108.66 6.87768 105.711 3.99805 102.07 3.99805V3.99987ZM105.616 11.1071C105.616 13.0699 103.984 14.6634 101.971 14.6634H99.8235V6.93771H101.971C103.983 6.93771 105.616 8.52943 105.616 10.4941V11.1089V11.1071Z" fill="#201F1D"/>
<path d="M121.201 22H124.713L117.534 4H114.191L107.012 22H110.524C110.524 22 111.24 20.0699 111.57 19.1804H120.153L121.199 22H121.201ZM112.515 16.6409C114.081 12.4243 115.863 7.62183 115.863 7.62183L119.211 16.6409H112.515Z" fill="#201F1D"/>
<path d="M128.919 22H130.389V17.0029L137 4H133.732L128.919 13.6958L124.103 4H120.835L127.448 17.0029V22H128.919Z" fill="#201F1D"/>
</g>
<path d="M53.9111 28.1016H57.3838C58.0537 28.1016 58.6165 28.2155 59.0723 28.4434C59.528 28.6712 59.8675 28.9834 60.0908 29.3799C60.3187 29.7764 60.4326 30.2253 60.4326 30.7266C60.4326 31.319 60.2845 31.7816 59.9883 32.1143C59.6921 32.4424 59.3024 32.6725 58.8193 32.8047V32.9004C59.1383 32.9186 59.4528 33.028 59.7627 33.2285C60.0726 33.429 60.3278 33.7139 60.5283 34.083C60.7288 34.4476 60.8291 34.8783 60.8291 35.375C60.8291 35.89 60.7106 36.3434 60.4736 36.7354C60.2412 37.1273 59.8766 37.4372 59.3799 37.665C58.8831 37.8883 58.2588 38 57.5068 38H53.9111V28.1016ZM57.4932 36.9062C58.2269 36.9062 58.7669 36.765 59.1133 36.4824C59.4642 36.1999 59.6396 35.8262 59.6396 35.3613C59.6396 35.0241 59.5531 34.7142 59.3799 34.4316C59.2113 34.1445 58.9674 33.9189 58.6484 33.7549C58.334 33.5863 57.9717 33.502 57.5615 33.502H55.1416V36.9062H57.4932ZM57.3428 32.4355C57.6982 32.4355 58.0218 32.3672 58.3135 32.2305C58.6051 32.0892 58.8353 31.891 59.0039 31.6357C59.1725 31.376 59.2568 31.0775 59.2568 30.7402C59.2568 30.2845 59.0996 29.9131 58.7852 29.626C58.4707 29.3389 58.0036 29.1953 57.3838 29.1953H55.1416V32.4355H57.3428ZM70.9463 33.0508C70.9463 34.0762 70.7594 34.974 70.3857 35.7441C70.012 36.5098 69.4925 37.0999 68.8271 37.5146C68.1663 37.9294 67.4144 38.1367 66.5713 38.1367C65.7236 38.1367 64.9694 37.9294 64.3086 37.5146C63.6478 37.0999 63.1305 36.5098 62.7568 35.7441C62.3831 34.974 62.1963 34.0762 62.1963 33.0508C62.1963 32.0254 62.3831 31.1299 62.7568 30.3643C63.1305 29.5941 63.6478 29.0016 64.3086 28.5869C64.9694 28.1722 65.7236 27.9648 66.5713 27.9648C67.4144 27.9648 68.1663 28.1722 68.8271 28.5869C69.4925 29.0016 70.012 29.5941 70.3857 30.3643C70.7594 31.1299 70.9463 32.0254 70.9463 33.0508ZM69.7568 33.0508C69.7568 32.2214 69.6178 31.5104 69.3398 30.918C69.0618 30.3255 68.6813 29.8766 68.1982 29.5713C67.7197 29.266 67.1774 29.1133 66.5713 29.1133C65.9652 29.1133 65.4206 29.266 64.9375 29.5713C64.459 29.8766 64.0807 30.3255 63.8027 30.918C63.5247 31.5104 63.3857 32.2214 63.3857 33.0508C63.3857 33.8802 63.5247 34.5911 63.8027 35.1836C64.0807 35.776 64.459 36.2249 64.9375 36.5303C65.4206 36.8356 65.9652 36.9883 66.5713 36.9883C67.1774 36.9883 67.7197 36.8356 68.1982 36.5303C68.6813 36.2249 69.0618 35.776 69.3398 35.1836C69.6178 34.5911 69.7568 33.8802 69.7568 33.0508ZM82.4033 28.5391V28.7031C82.3942 29.3092 82.3714 29.8698 82.335 30.3848C82.2985 30.8997 82.2165 31.4831 82.0889 32.1348L81.0088 32.0527C81.1364 31.4102 81.2207 30.8405 81.2617 30.3438C81.3073 29.847 81.3346 29.332 81.3438 28.7988H76.3467V27.8965H82.4033V28.5391ZM79.2725 33.2012C80.8402 33.1374 82.1755 33.028 83.2783 32.873L83.3467 33.666C82.2119 33.862 81.002 33.9941 79.7168 34.0625C78.4362 34.1263 77.0986 34.1582 75.7041 34.1582L75.5947 33.2695H75.7451L78.2061 33.2354V30.5898H79.2725V33.2012ZM85.1924 30.918H86.9697V31.834H85.1924V36.0996H84.0986V26.9531H85.1924V30.918ZM85.5889 38.8477H77.4678V35.2793H78.5479V37.9453H85.5889V38.8477ZM97.7979 39.1348H96.7314V26.9531H97.7979V39.1348ZM94.1064 32.4082H89.5674V35.2793C90.6566 35.2793 91.6683 35.2474 92.6025 35.1836C93.5413 35.1198 94.5257 35.0059 95.5557 34.8418L95.665 35.7441C94.6123 35.9128 93.6051 36.029 92.6436 36.0928C91.682 36.152 90.6292 36.1816 89.4854 36.1816H88.4736V31.5332H93.0264V28.9766H88.4463V28.0879H94.1064V32.4082ZM103.978 30.6855C103.973 31.3236 104.11 31.973 104.388 32.6338C104.67 33.29 105.053 33.8848 105.536 34.418C106.019 34.9466 106.552 35.3477 107.136 35.6211L106.521 36.4688C105.841 36.1406 105.229 35.6393 104.682 34.9648C104.139 34.2904 103.729 33.5384 103.451 32.709C103.269 33.3014 103.018 33.8643 102.699 34.3975C102.38 34.9307 102.016 35.4023 101.605 35.8125C101.195 36.2181 100.765 36.5371 100.313 36.7695L99.6572 35.9219C100.236 35.6439 100.774 35.2223 101.271 34.6572C101.772 34.0921 102.171 33.4587 102.467 32.7568C102.768 32.055 102.92 31.3646 102.925 30.6855V29.0996H100.095V28.2109H106.712V29.0996H103.978V30.6855ZM109.269 31.875H111.306V32.791H109.269V39.1074H108.202V26.9531H109.269V31.875ZM124.909 32.1348H126.851V33.0371H124.909V39.1074H123.829V26.9531H124.909V32.1348ZM115.325 35.8672C116.756 35.8672 117.873 35.8535 118.675 35.8262V34.4795C118.205 34.4248 117.793 34.3018 117.438 34.1104C117.087 33.9144 116.815 33.6615 116.624 33.3516C116.437 33.0371 116.346 32.6816 116.351 32.2852C116.346 31.834 116.462 31.4398 116.699 31.1025C116.941 30.7607 117.278 30.4964 117.711 30.3096C118.148 30.1227 118.652 30.0293 119.222 30.0293C119.782 30.0293 120.279 30.1227 120.712 30.3096C121.149 30.4964 121.489 30.7607 121.73 31.1025C121.977 31.4398 122.102 31.834 122.106 32.2852C122.102 32.6816 122.002 33.0371 121.806 33.3516C121.61 33.6615 121.334 33.9144 120.979 34.1104C120.628 34.3063 120.22 34.4316 119.755 34.4863V35.7852C121.049 35.7214 122.161 35.6211 123.091 35.4844L123.159 36.3047C121.983 36.5052 120.776 36.6351 119.536 36.6943C118.297 36.7536 116.952 36.7832 115.503 36.7832L115.325 35.8672ZM122.872 29.3184H115.544V28.4434H118.675V26.9805H119.755V28.4434H122.872V29.3184ZM119.222 30.8633C118.853 30.8633 118.527 30.9225 118.244 31.041C117.962 31.1595 117.741 31.3281 117.581 31.5469C117.426 31.7611 117.349 32.0072 117.349 32.2852C117.349 32.5632 117.426 32.8092 117.581 33.0234C117.736 33.2331 117.955 33.3949 118.237 33.5088C118.524 33.6182 118.853 33.6706 119.222 33.666C119.586 33.6706 119.91 33.6182 120.192 33.5088C120.475 33.3949 120.694 33.2331 120.849 33.0234C121.004 32.8092 121.081 32.5632 121.081 32.2852C121.081 32.0072 121.004 31.7611 120.849 31.5469C120.694 31.3281 120.475 31.1595 120.192 31.041C119.91 30.9225 119.586 30.8633 119.222 30.8633ZM133.728 29.0996H136.571V26.9668H137.651V35.8398H136.571V32.5996H133.728V33.6934H128.149V28.0195H133.728V29.0996ZM129.216 32.832H132.675V28.9082H129.216V32.832ZM137.925 38.8477H129.79V35.0469H130.87V37.9453H137.925V38.8477ZM136.571 31.7109V30.002H133.728V31.7109H136.571Z" fill="#17191A"/>
<defs>
<clipPath id="clip0_11019_69156">
<rect width="82" height="18" fill="white" transform="translate(55 4)"/>
</clipPath>
</defs>
</svg>
