<svg width="24" height="24" viewBox="0 0 24 24" fill="none" xmlns="http://www.w3.org/2000/svg">
<path fill-rule="evenodd" clip-rule="evenodd" d="M8.25 12C8.25 9.94479 9.94479 8.25 12 8.25C14.0551 8.25 15.75 9.94362 15.75 12C15.75 14.0562 14.0562 15.75 12 15.75C9.94379 15.75 8.25 14.0562 8.25 12ZM12 9.75C10.7732 9.75 9.75 10.7732 9.75 12C9.75 13.2278 10.7722 14.25 12 14.25C13.2278 14.25 14.25 13.2278 14.25 12C14.25 10.7724 13.2269 9.75 12 9.75Z" fill="#A4ADB2"/>
<path fill-rule="evenodd" clip-rule="evenodd" d="M2.83343 12.0001C3.62409 13.5433 6.12962 17.25 12 17.25C17.8715 17.25 20.3743 13.5463 21.1666 11.9999C20.3759 10.4567 17.8704 6.75 12 6.75C6.12852 6.75 3.62571 10.4537 2.83343 12.0001ZM1.31799 11.6879C2.00645 10.1833 4.82265 5.25 12 5.25C19.1774 5.25 21.9966 10.1884 22.6821 11.6882L22.8247 12.0002L22.682 12.3121C21.9935 13.8167 19.1773 18.75 12 18.75C4.82261 18.75 2.00336 13.8116 1.31786 12.3118L1.17529 11.9998L1.31799 11.6879Z" fill="#A4ADB2"/>
</svg>
