<svg width="20" height="21" viewBox="0 0 20 21" fill="none" xmlns="http://www.w3.org/2000/svg">
<path fill-rule="evenodd" clip-rule="evenodd" d="M8.3908 12.2683L13.5166 7.15624L14.3993 8.04131L8.3835 14.0409L5.17968 10.7927L6.06963 9.91489L8.3908 12.2683Z" fill="#004FFF"/>
<path fill-rule="evenodd" clip-rule="evenodd" d="M0.833008 10.3763C0.833008 5.44779 4.86283 1.41797 9.79134 1.41797C14.7199 1.41797 18.7497 5.44779 18.7497 10.3763C18.7497 15.3048 14.7199 19.3346 9.79134 19.3346C4.86283 19.3346 0.833008 15.3048 0.833008 10.3763ZM9.79134 2.66797C5.55319 2.66797 2.08301 6.13815 2.08301 10.3763C2.08301 14.6145 5.55319 18.0846 9.79134 18.0846C14.0295 18.0846 17.4997 14.6145 17.4997 10.3763C17.4997 6.13815 14.0295 2.66797 9.79134 2.66797Z" fill="#004FFF"/>
</svg>
