<svg width="20" height="20" viewBox="0 0 20 20" fill="none" xmlns="http://www.w3.org/2000/svg">
<path fill-rule="evenodd" clip-rule="evenodd" d="M1.66602 8.95768C1.66602 4.94584 4.94584 1.66602 8.95768 1.66602C12.9695 1.66602 16.2493 4.94584 16.2493 8.95768C16.2493 12.9695 12.9695 16.2493 8.95768 16.2493C4.94584 16.2493 1.66602 12.9695 1.66602 8.95768ZM8.95768 2.91602C5.63619 2.91602 2.91602 5.63619 2.91602 8.95768C2.91602 12.2792 5.63619 14.9993 8.95768 14.9993C12.2792 14.9993 14.9993 12.2792 14.9993 8.95768C14.9993 5.63619 12.2792 2.91602 8.95768 2.91602Z" fill="#004FFF"/>
<path fill-rule="evenodd" clip-rule="evenodd" d="M14.0663 13.1824L17.733 16.8491L16.8491 17.7329L13.1824 14.0663L14.0663 13.1824Z" fill="#004FFF"/>
</svg>
