<svg width="24" height="25" viewBox="0 0 24 25" fill="none" xmlns="http://www.w3.org/2000/svg">
<path fill-rule="evenodd" clip-rule="evenodd" d="M8.34263 11.8065C8.39938 11.5373 8.48982 11.2264 8.62674 10.9652L9.95526 11.6616C9.90818 11.7515 9.85312 11.9131 9.81037 12.1159C9.76856 12.3142 9.75 12.4969 9.75 12.6074C9.75 13.8352 10.7722 14.8574 12 14.8574C12.2837 14.8574 12.6849 14.8011 12.9826 14.6577L13.6334 16.0092C13.0631 16.2838 12.4163 16.3574 12 16.3574C9.94379 16.3574 8.25 14.6636 8.25 12.6074C8.25 12.369 8.28494 12.0801 8.34263 11.8065Z" fill="#A4ADB2"/>
<path fill-rule="evenodd" clip-rule="evenodd" d="M2.83362 12.6072C3.31087 11.6717 4.4143 9.92797 6.45935 8.76428L5.7175 7.46057C3.022 8.99439 1.74288 11.3669 1.31833 12.2956L1.17578 12.6074L1.31829 12.9192C2.0037 14.4189 4.81889 19.3574 12.0004 19.3574C13.6198 19.3574 15.0268 19.1048 16.2425 18.6903L15.7584 17.2706C14.7041 17.63 13.4611 17.8574 12.0004 17.8574C6.12597 17.8574 3.62367 14.1503 2.83362 12.6072Z" fill="#A4ADB2"/>
<path fill-rule="evenodd" clip-rule="evenodd" d="M11.9994 7.35742C11.3267 7.35742 10.3989 7.4414 9.79763 7.58414L9.45117 6.1247C10.1979 5.94745 11.2481 5.85742 11.9994 5.85742C19.1809 5.85742 21.9961 10.796 22.6815 12.2957L22.8242 12.6077L22.6813 12.9197C22.3148 13.72 21.3581 15.4765 19.4605 16.9559L18.5382 15.7729C19.9616 14.6632 20.7742 13.3695 21.1658 12.607C20.3754 11.0635 17.873 7.35742 11.9994 7.35742Z" fill="#A4ADB2"/>
<path fill-rule="evenodd" clip-rule="evenodd" d="M19.7617 22.8447L1.76172 4.84472L2.82238 3.78406L20.8224 21.7841L19.7617 22.8447Z" fill="#A4ADB2"/>
</svg>
