<svg width="24" height="25" viewBox="0 0 24 25" fill="none" xmlns="http://www.w3.org/2000/svg">
<path fill-rule="evenodd" clip-rule="evenodd" d="M8.40235 4.04449C9.2704 3.06576 10.5832 2.60742 11.75 2.60742C12.9477 2.60742 14.1295 3.08497 15.0629 4.00977C16.0417 4.87783 16.5 6.19058 16.5 7.35742C16.5 8.55514 16.0225 9.73688 15.0976 10.6704C14.2296 11.6491 12.9168 12.1074 11.75 12.1074C10.5523 12.1074 9.37064 11.6299 8.43719 10.7052C7.46531 9.84452 7 8.63436 7 7.35742C7 6.1597 7.47754 4.97796 8.40235 4.04449ZM11.75 4.10742C10.9244 4.10742 10.0466 4.44313 9.51443 5.0513L9.49799 5.07009L9.48033 5.08775C8.81649 5.75159 8.5 6.56259 8.5 7.35742C8.5 8.27221 8.82864 9.05466 9.44388 9.59299L9.46267 9.60943L9.48033 9.62709C10.1442 10.2909 10.9552 10.6074 11.75 10.6074C12.5756 10.6074 13.4534 10.2717 13.9856 9.66354L14.002 9.64475L14.0197 9.62709C14.6835 8.96326 15 8.15225 15 7.35742C15 6.53181 14.6643 5.654 14.0561 5.12185L14.0373 5.10541L14.0197 5.08775C13.3558 4.42392 12.5448 4.10742 11.75 4.10742Z" fill="#A4ADB2"/>
<path fill-rule="evenodd" clip-rule="evenodd" d="M7.75 16.1074C6.95517 16.1074 6.14417 16.4239 5.48033 17.0878L5.46267 17.1054L5.44388 17.1219C4.82864 17.6602 4.5 18.4426 4.5 19.3574V22.3574H3V19.3574C3 18.0805 3.46531 16.8703 4.43719 16.0097C5.37064 15.0849 6.55233 14.6074 7.75 14.6074H15.75C17.0269 14.6074 18.2371 15.0727 19.0978 16.0446C20.0225 16.9781 20.5 18.1598 20.5 19.3574V22.3574H19V19.3574C19 18.5626 18.6835 17.7516 18.0197 17.0878L18.002 17.0701L17.9856 17.0513C17.4472 16.4361 16.6648 16.1074 15.75 16.1074H7.75Z" fill="#A4ADB2"/>
</svg>
