<svg width="21" height="20" viewBox="0 0 21 20" fill="none" xmlns="http://www.w3.org/2000/svg">
<path fill-rule="evenodd" clip-rule="evenodd" d="M12.0315 3.3879C12.2548 3.28656 12.5167 3.32519 12.7013 3.48668L19.3679 9.32001C19.5036 9.43869 19.5814 9.61015 19.5814 9.79037C19.5814 9.9706 19.5036 10.1421 19.3679 10.2607L12.7013 16.0941C12.5167 16.2556 12.2548 16.2942 12.0315 16.1929C11.8081 16.0915 11.6647 15.8689 11.6647 15.6237V12.9235C10.0601 12.9665 8.6822 13.1859 7.44677 13.7006C6.06393 14.2768 4.81593 15.2415 3.62305 16.832C3.46164 17.0473 3.18062 17.135 2.9254 17.05C2.67019 16.9649 2.49805 16.7261 2.49805 16.457C2.49805 13.003 3.45375 10.7171 5.24072 9.20862C6.87459 7.82938 9.11942 7.1777 11.6647 6.75653V3.95704C11.6647 3.71181 11.8081 3.48923 12.0315 3.3879ZM12.9147 5.3344V7.29037C12.9147 7.5994 12.6889 7.86203 12.3833 7.90832C9.64713 8.3229 7.5087 8.92992 6.04704 10.1638C4.9151 11.1193 4.128 12.5067 3.85439 14.6547C4.81525 13.6974 5.84274 13.0148 6.966 12.5468C8.57305 11.8772 10.3323 11.6654 12.2897 11.6654C12.6349 11.6654 12.9147 11.9452 12.9147 12.2904V14.2464L18.0073 9.79037L12.9147 5.3344Z" fill="#004FFF"/>
</svg>
