<svg width="20" height="20" viewBox="0 0 20 20" fill="none" xmlns="http://www.w3.org/2000/svg">
<g id="Inline Button Icon">
<g id="Vector">
<path fill-rule="evenodd" clip-rule="evenodd" d="M16.6667 6.6665V2.2915H17.9167V7.9165H13.125V6.6665H16.6667Z" fill="#004FFF"/>
<path fill-rule="evenodd" clip-rule="evenodd" d="M9.79167 2.9165C5.99435 2.9165 2.91667 5.99418 2.91667 9.7915C2.91667 13.5888 5.99435 16.6665 9.79167 16.6665C13.589 16.6665 16.6667 13.5888 16.6667 9.7915H17.9167C17.9167 14.2792 14.2793 17.9165 9.79167 17.9165C5.30399 17.9165 1.66667 14.2792 1.66667 9.7915C1.66667 5.30383 5.30399 1.6665 9.79167 1.6665C12.9123 1.6665 15.621 3.42634 16.9815 6.00407C17.0014 6.02682 17.028 6.05675 17.0601 6.09272C17.1341 6.17566 17.2311 6.28319 17.3303 6.39319L17.3394 6.40335C17.441 6.51595 17.5442 6.63044 17.6232 6.71902C17.6624 6.76305 17.6976 6.80282 17.7243 6.83363C17.7372 6.84863 17.7509 6.86458 17.7628 6.87916C17.7685 6.88611 17.777 6.89662 17.7861 6.9086C17.7906 6.91451 17.7979 6.92428 17.8061 6.93639C17.8115 6.94416 17.8312 6.97301 17.8507 7.012L16.7327 7.57101C16.7514 7.60849 16.7699 7.63545 16.7742 7.64175C16.7811 7.65196 16.787 7.65982 16.7895 7.66306C16.7945 7.66969 16.7975 7.67334 16.7964 7.67198C16.7948 7.66997 16.7895 7.66363 16.7789 7.65145C16.7585 7.62789 16.7284 7.59373 16.6901 7.55081C16.6141 7.46548 16.5135 7.35393 16.4112 7.2405L16.4004 7.22852C16.3024 7.11989 16.2037 7.01042 16.1276 6.92513C16.0883 6.88115 16.0532 6.84157 16.0267 6.81099C16.0137 6.79608 16.0003 6.78043 15.9886 6.76626C15.983 6.75949 15.9748 6.74945 15.9662 6.73811C15.9619 6.73252 15.955 6.72337 15.9471 6.71208C15.942 6.70482 15.9235 6.67821 15.9047 6.64234L15.9031 6.63934C14.7595 4.42708 12.4514 2.9165 9.79167 2.9165Z" fill="#004FFF"/>
</g>
</g>
</svg>
