<svg width="20" height="20" viewBox="0 0 20 20" fill="none" xmlns="http://www.w3.org/2000/svg">
<path fill-rule="evenodd" clip-rule="evenodd" d="M1.6665 8.95842C1.6665 4.94657 4.94633 1.66675 8.95817 1.66675C12.97 1.66675 16.2498 4.94657 16.2498 8.95842C16.2498 12.9703 12.97 16.2501 8.95817 16.2501C4.94633 16.2501 1.6665 12.9703 1.6665 8.95842ZM8.95817 2.91675C5.63668 2.91675 2.9165 5.63693 2.9165 8.95842C2.9165 12.2799 5.63668 15.0001 8.95817 15.0001C12.2797 15.0001 14.9998 12.2799 14.9998 8.95842C14.9998 5.63693 12.2797 2.91675 8.95817 2.91675Z" fill="white"/>
<path fill-rule="evenodd" clip-rule="evenodd" d="M14.0668 13.1831L17.7335 16.8498L16.8496 17.7337L13.1829 14.067L14.0668 13.1831Z" fill="white"/>
</svg>
