<svg width="21" height="20" viewBox="0 0 21 20" fill="none" xmlns="http://www.w3.org/2000/svg">
<path fill-rule="evenodd" clip-rule="evenodd" d="M16.6654 4.60731L13.774 1.71591L14.6579 0.832031L18.4332 4.60731L14.6579 8.38258L13.774 7.4987L16.6654 4.60731Z" fill="white"/>
<path fill-rule="evenodd" clip-rule="evenodd" d="M5.49236 5.80117C5.98141 5.39456 6.5763 5.149 7.13259 5.149H17.4659V3.899H7.13259C6.20273 3.899 5.31344 4.30771 4.64251 4.88279L4.60601 4.91408L4.57472 4.95059C4.01384 5.60495 3.59092 6.4106 3.59092 7.35733V8.774H4.84092V7.35733C4.84092 6.81741 5.07306 6.30185 5.49236 5.80117Z" fill="white"/>
<path fill-rule="evenodd" clip-rule="evenodd" d="M5.0998 14.6073L7.99119 11.7159L7.10731 10.832L3.33203 14.6073L7.10731 18.3826L7.99119 17.4987L5.0998 14.6073Z" fill="white"/>
<path fill-rule="evenodd" clip-rule="evenodd" d="M16.9243 11.8573V10.4406H18.1743V11.8573C18.1743 12.804 17.7513 13.6097 17.1905 14.2641L17.1592 14.3006L17.1227 14.3318C16.4517 14.9069 15.5624 15.3156 14.6326 15.3156H4.21592V14.0656H14.6326C15.1889 14.0656 15.7838 13.8201 16.2728 13.4135C16.6921 12.9128 16.9243 12.3972 16.9243 11.8573Z" fill="white"/>
</svg>

