<svg width="24" height="25" viewBox="0 0 24 25" fill="none" xmlns="http://www.w3.org/2000/svg">
<path fill-rule="evenodd" clip-rule="evenodd" d="M4.75 12.1074C4.61193 12.1074 4.5 12.2194 4.5 12.3574V20.3574C4.5 20.4955 4.61193 20.6074 4.75 20.6074H18.75C18.8881 20.6074 19 20.4955 19 20.3574V12.3574C19 12.2194 18.8881 12.1074 18.75 12.1074H4.75ZM3 12.3574C3 11.3909 3.7835 10.6074 4.75 10.6074H18.75C19.7165 10.6074 20.5 11.3909 20.5 12.3574V20.3574C20.5 21.3239 19.7165 22.1074 18.75 22.1074H4.75C3.7835 22.1074 3 21.3239 3 20.3574V12.3574Z" fill="#A4ADB2"/>
<path fill-rule="evenodd" clip-rule="evenodd" d="M11.75 4.10742C9.96421 4.10742 8.5 5.57164 8.5 7.35742V11.3574H7V7.35742C7 4.74321 9.13579 2.60742 11.75 2.60742C14.3642 2.60742 16.5 4.74321 16.5 7.35742V11.3574H15V7.35742C15 5.57164 13.5358 4.10742 11.75 4.10742Z" fill="#A4ADB2"/>
</svg>
